# xmcd
#
# Track frame offsets: 
#        150
#        16775
#        39775
#        49970
#        64800
#        78300
#        123545
#        144187
#        159375
#        182787
#        194600
#        212412
#
# Disc length: 3115 seconds
#
# Revision: 4
# Processed by: cddbd v1.5.2PL0 Copyright (c) Steve Scherf et al.
# Submitted via: ExactAudioCopy v0.99pb5
#
DISCID=9b0c290c
DTITLE=Blues 'n' Trouble - Poor Moon
DYEAR=1992
DGENRE=Blues
TTITLE0=Poor Moon
TTITLE1=Howling My Life Away
TTITLE2=Breaking The Ice
TTITLE3=Please Mr. Postman
TTITLE4=Po´ Boy
TTITLE5=Living With My Blues
TTITLE6=Sweet Little Cutie
TTITLE7=Looking For Something
TTITLE8=Pretty Thing
TTITLE9=Boogywalou
TTITLE10=Twistin´ On The Moon
TTITLE11=Gillian
EXTD=
EXTT0=
EXTT1=
EXTT2=
EXTT3=
EXTT4=
EXTT5=
EXTT6=
EXTT7=
EXTT8=
EXTT9=
EXTT10=
EXTT11=
PLAYORDER=
